<svg width="74" height="46" viewBox="0 0 74 46" fill="none" xmlns="http://www.w3.org/2000/svg">
<path fill-rule="evenodd" clip-rule="evenodd" d="M29.3644 15.4645C30.302 14.5268 31.5738 14 32.8999 14H40.8999C42.226 14 43.4978 14.5268 44.4354 15.4645C45.3731 16.4021 45.8999 17.6739 45.8999 19V21C45.8999 21.5523 45.4522 22 44.8999 22C44.3476 22 43.8999 21.5523 43.8999 21V19C43.8999 18.2044 43.5838 17.4413 43.0212 16.8787C42.4586 16.3161 41.6956 16 40.8999 16H32.8999C32.1043 16 31.3412 16.3161 30.7786 16.8787C30.216 17.4413 29.8999 18.2044 29.8999 19V21C29.8999 21.5523 29.4522 22 28.8999 22C28.3476 22 27.8999 21.5523 27.8999 21V19C27.8999 17.6739 28.4267 16.4021 29.3644 15.4645Z" fill="#484C52"/>
<path fill-rule="evenodd" clip-rule="evenodd" d="M36.8999 4C35.243 4 33.8999 5.34315 33.8999 7C33.8999 8.65685 35.243 10 36.8999 10C38.5568 10 39.8999 8.65685 39.8999 7C39.8999 5.34315 38.5568 4 36.8999 4ZM31.8999 7C31.8999 4.23858 34.1385 2 36.8999 2C39.6613 2 41.8999 4.23858 41.8999 7C41.8999 9.76142 39.6613 12 36.8999 12C34.1385 12 31.8999 9.76142 31.8999 7Z" fill="#484C52"/>
<path d="M24.9159 36.084C24.9159 36.78 24.6759 37.36 24.1959 37.824C23.7239 38.28 22.9999 38.508 22.0239 38.508H20.4159V42H19.3239V33.636H22.0239C22.9679 33.636 23.6839 33.864 24.1719 34.32C24.6679 34.776 24.9159 35.364 24.9159 36.084ZM22.0239 37.608C22.6319 37.608 23.0799 37.476 23.3679 37.212C23.6559 36.948 23.7999 36.572 23.7999 36.084C23.7999 35.052 23.2079 34.536 22.0239 34.536H20.4159V37.608H22.0239ZM27.3651 36.492C27.5571 36.116 27.8291 35.824 28.1811 35.616C28.5411 35.408 28.9771 35.304 29.4891 35.304V36.432H29.2011C27.9771 36.432 27.3651 37.096 27.3651 38.424V42H26.2731V35.424H27.3651V36.492ZM33.6177 42.108C33.0017 42.108 32.4417 41.968 31.9377 41.688C31.4417 41.408 31.0497 41.012 30.7617 40.5C30.4817 39.98 30.3417 39.38 30.3417 38.7C30.3417 38.028 30.4857 37.436 30.7737 36.924C31.0697 36.404 31.4697 36.008 31.9737 35.736C32.4777 35.456 33.0417 35.316 33.6657 35.316C34.2897 35.316 34.8537 35.456 35.3577 35.736C35.8617 36.008 36.2577 36.4 36.5457 36.912C36.8417 37.424 36.9897 38.02 36.9897 38.7C36.9897 39.38 36.8377 39.98 36.5337 40.5C36.2377 41.012 35.8337 41.408 35.3217 41.688C34.8097 41.968 34.2417 42.108 33.6177 42.108ZM33.6177 41.148C34.0097 41.148 34.3777 41.056 34.7217 40.872C35.0657 40.688 35.3417 40.412 35.5497 40.044C35.7657 39.676 35.8737 39.228 35.8737 38.7C35.8737 38.172 35.7697 37.724 35.5617 37.356C35.3537 36.988 35.0817 36.716 34.7457 36.54C34.4097 36.356 34.0457 36.264 33.6537 36.264C33.2537 36.264 32.8857 36.356 32.5497 36.54C32.2217 36.716 31.9577 36.988 31.7577 37.356C31.5577 37.724 31.4577 38.172 31.4577 38.7C31.4577 39.236 31.5537 39.688 31.7457 40.056C31.9457 40.424 32.2097 40.7 32.5377 40.884C32.8657 41.06 33.2257 41.148 33.6177 41.148ZM41.1015 36.324H39.7215V42H38.6295V36.324H37.7775V35.424H38.6295V34.956C38.6295 34.22 38.8175 33.684 39.1935 33.348C39.5775 33.004 40.1895 32.832 41.0295 32.832V33.744C40.5495 33.744 40.2095 33.84 40.0095 34.032C39.8175 34.216 39.7215 34.524 39.7215 34.956V35.424H41.1015V36.324ZM42.9387 34.356C42.7307 34.356 42.5547 34.284 42.4107 34.14C42.2667 33.996 42.1947 33.82 42.1947 33.612C42.1947 33.404 42.2667 33.228 42.4107 33.084C42.5547 32.94 42.7307 32.868 42.9387 32.868C43.1387 32.868 43.3067 32.94 43.4427 33.084C43.5867 33.228 43.6587 33.404 43.6587 33.612C43.6587 33.82 43.5867 33.996 43.4427 34.14C43.3067 34.284 43.1387 34.356 42.9387 34.356ZM43.4667 35.424V42H42.3747V35.424H43.4667ZM46.4198 33.12V42H45.3278V33.12H46.4198ZM54.2809 38.46C54.2809 38.668 54.2689 38.888 54.2449 39.12H48.9889C49.0289 39.768 49.2489 40.276 49.6489 40.644C50.0569 41.004 50.5489 41.184 51.1249 41.184C51.5969 41.184 51.9889 41.076 52.3009 40.86C52.6209 40.636 52.8449 40.34 52.9729 39.972H54.1489C53.9729 40.604 53.6209 41.12 53.0929 41.52C52.5649 41.912 51.9089 42.108 51.1249 42.108C50.5009 42.108 49.9409 41.968 49.4449 41.688C48.9569 41.408 48.5729 41.012 48.2929 40.5C48.0129 39.98 47.8729 39.38 47.8729 38.7C47.8729 38.02 48.0089 37.424 48.2809 36.912C48.5529 36.4 48.9329 36.008 49.4209 35.736C49.9169 35.456 50.4849 35.316 51.1249 35.316C51.7489 35.316 52.3009 35.452 52.7809 35.724C53.2609 35.996 53.6289 36.372 53.8849 36.852C54.1489 37.324 54.2809 37.86 54.2809 38.46ZM53.1529 38.232C53.1529 37.816 53.0609 37.46 52.8769 37.164C52.6929 36.86 52.4409 36.632 52.1209 36.48C51.8089 36.32 51.4609 36.24 51.0769 36.24C50.5249 36.24 50.0529 36.416 49.6609 36.768C49.2769 37.12 49.0569 37.608 49.0009 38.232H53.1529Z" fill="#484C52"/>
</svg>
